<svg width="180" height="44" viewBox="0 0 180 44" fill="none" xmlns="http://www.w3.org/2000/svg">
<rect width="180" height="44" rx="22" fill="#070707"/>
<path d="M25.2264 25.4316C25.2264 26.1934 25.0418 26.8555 24.6727 27.418C24.3035 27.9805 23.7645 28.4141 23.0555 28.7188C22.3523 29.0234 21.4969 29.1758 20.4891 29.1758C20.0437 29.1758 19.6072 29.1465 19.1795 29.0879C18.7576 29.0293 18.3504 28.9443 17.9578 28.833C17.5711 28.7158 17.202 28.5723 16.8504 28.4023V25.8711C17.4598 26.1406 18.0926 26.3838 18.7488 26.6006C19.4051 26.8174 20.0555 26.9258 20.7 26.9258C21.1453 26.9258 21.5027 26.8672 21.7723 26.75C22.0477 26.6328 22.2469 26.4717 22.3699 26.2666C22.493 26.0615 22.5545 25.8271 22.5545 25.5635C22.5545 25.2412 22.4461 24.9658 22.2293 24.7373C22.0125 24.5088 21.7137 24.2949 21.3328 24.0957C20.9578 23.8965 20.533 23.6826 20.0584 23.4541C19.7596 23.3135 19.4344 23.1436 19.0828 22.9443C18.7312 22.7393 18.3973 22.4902 18.0809 22.1973C17.7645 21.9043 17.5037 21.5498 17.2986 21.1338C17.0994 20.7119 16.9998 20.208 16.9998 19.6221C16.9998 18.8545 17.1756 18.1982 17.5271 17.6533C17.8787 17.1084 18.3797 16.6924 19.0301 16.4053C19.6863 16.1123 20.4598 15.9658 21.3504 15.9658C22.0184 15.9658 22.6541 16.0449 23.2576 16.2031C23.867 16.3555 24.5027 16.5781 25.1648 16.8711L24.2859 18.9893C23.6941 18.749 23.1639 18.5645 22.6951 18.4355C22.2264 18.3008 21.7488 18.2334 21.2625 18.2334C20.9227 18.2334 20.6326 18.2891 20.3924 18.4004C20.1521 18.5059 19.9705 18.6582 19.8475 18.8574C19.7244 19.0508 19.6629 19.2764 19.6629 19.5342C19.6629 19.8389 19.7508 20.0967 19.9266 20.3076C20.1082 20.5127 20.3777 20.7119 20.7352 20.9053C21.0984 21.0986 21.5496 21.3242 22.0887 21.582C22.7449 21.8926 23.3045 22.2178 23.7674 22.5576C24.2361 22.8916 24.5965 23.2871 24.8484 23.7441C25.1004 24.1953 25.2264 24.7578 25.2264 25.4316ZM33.1963 18.9893C34.1045 18.9893 34.8867 19.165 35.543 19.5166C36.1992 19.8623 36.7061 20.3662 37.0635 21.0283C37.4209 21.6904 37.5996 22.499 37.5996 23.4541V24.7549H31.2627C31.292 25.5107 31.5176 26.1055 31.9395 26.5391C32.3672 26.9668 32.959 27.1807 33.7148 27.1807C34.3418 27.1807 34.916 27.1162 35.4375 26.9873C35.959 26.8584 36.4951 26.665 37.0459 26.4072V28.4814C36.5596 28.7217 36.0498 28.8975 35.5166 29.0088C34.9893 29.1201 34.3477 29.1758 33.5918 29.1758C32.6074 29.1758 31.7344 28.9941 30.9727 28.6309C30.2168 28.2676 29.6221 27.7139 29.1885 26.9697C28.7607 26.2256 28.5469 25.2881 28.5469 24.1572C28.5469 23.0088 28.7402 22.0537 29.127 21.292C29.5195 20.5244 30.0645 19.9502 30.7617 19.5693C31.459 19.1826 32.2705 18.9893 33.1963 18.9893ZM33.2139 20.8965C32.6924 20.8965 32.2588 21.0635 31.9131 21.3975C31.5732 21.7314 31.377 22.2559 31.3242 22.9707H35.0859C35.0801 22.5723 35.0068 22.2178 34.8662 21.9072C34.7314 21.5967 34.5264 21.3506 34.251 21.1689C33.9814 20.9873 33.6357 20.8965 33.2139 20.8965ZM47.1603 18.9893C48.2092 18.9893 49.0529 19.2764 49.6916 19.8506C50.3303 20.4189 50.6496 21.333 50.6496 22.5928V29H47.9689V23.2607C47.9689 22.5576 47.84 22.0273 47.5822 21.6699C47.3303 21.3125 46.9318 21.1338 46.3869 21.1338C45.5666 21.1338 45.007 21.4121 44.7082 21.9688C44.4094 22.5254 44.26 23.3281 44.26 24.377V29H41.5793V19.1738H43.6271L43.9875 20.4307H44.1369C44.3478 20.0908 44.6086 19.8154 44.9191 19.6045C45.2355 19.3936 45.5842 19.2383 45.965 19.1387C46.3518 19.0391 46.7502 18.9893 47.1603 18.9893ZM58.3207 29.1758C57.225 29.1758 56.3314 28.748 55.64 27.8926C54.9545 27.0312 54.6117 25.7686 54.6117 24.1045C54.6117 22.4229 54.9604 21.1514 55.6576 20.29C56.3549 19.4229 57.266 18.9893 58.391 18.9893C58.8598 18.9893 59.2729 19.0537 59.6303 19.1826C59.9877 19.3115 60.2953 19.4844 60.5531 19.7012C60.8168 19.918 61.0395 20.1611 61.2211 20.4307H61.309C61.2738 20.2432 61.2299 19.9678 61.1771 19.6045C61.1303 19.2354 61.1068 18.8574 61.1068 18.4707V15.3242H63.7963V29H61.7396L61.2211 27.7256H61.1068C60.9369 27.9951 60.723 28.2412 60.4652 28.4639C60.2133 28.6807 59.9115 28.8535 59.56 28.9824C59.2084 29.1113 58.7953 29.1758 58.3207 29.1758ZM59.2611 27.04C59.9936 27.04 60.5092 26.8232 60.808 26.3896C61.1127 25.9502 61.2738 25.291 61.2914 24.4121V24.1221C61.2914 23.167 61.1449 22.4375 60.852 21.9336C60.559 21.4238 60.0141 21.1689 59.2172 21.1689C58.6254 21.1689 58.1625 21.4238 57.8285 21.9336C57.4945 22.4434 57.3275 23.1787 57.3275 24.1396C57.3275 25.1006 57.4945 25.8242 57.8285 26.3105C58.1684 26.7969 58.6459 27.04 59.2611 27.04ZM86.4158 18.9893C87.5291 18.9893 88.3699 19.2764 88.9383 19.8506C89.5125 20.4189 89.7996 21.333 89.7996 22.5928V29H87.1102V23.2607C87.1102 22.5576 86.99 22.0273 86.7498 21.6699C86.5096 21.3125 86.1375 21.1338 85.6336 21.1338C84.9246 21.1338 84.4207 21.3887 84.1219 21.8984C83.823 22.4023 83.6736 23.126 83.6736 24.0693V29H80.993V23.2607C80.993 22.792 80.9402 22.3994 80.8348 22.083C80.7293 21.7666 80.5682 21.5293 80.3514 21.3711C80.1346 21.2129 79.8562 21.1338 79.5164 21.1338C79.0184 21.1338 78.6258 21.2598 78.3387 21.5117C78.0574 21.7578 77.8553 22.124 77.7322 22.6104C77.615 23.0908 77.5564 23.6797 77.5564 24.377V29H74.8758V19.1738H76.9236L77.284 20.4307H77.4334C77.6326 20.0908 77.8816 19.8154 78.1805 19.6045C78.4852 19.3936 78.8191 19.2383 79.1824 19.1387C79.5457 19.0391 79.9148 18.9893 80.2898 18.9893C81.0105 18.9893 81.6199 19.1064 82.118 19.3408C82.6219 19.5752 83.0086 19.9385 83.2781 20.4307H83.5154C83.8084 19.9268 84.2215 19.5605 84.7547 19.332C85.2937 19.1035 85.8475 18.9893 86.4158 18.9893ZM98.4111 18.9893C99.3193 18.9893 100.102 19.165 100.758 19.5166C101.414 19.8623 101.921 20.3662 102.278 21.0283C102.636 21.6904 102.814 22.499 102.814 23.4541V24.7549H96.4775C96.5068 25.5107 96.7324 26.1055 97.1543 26.5391C97.582 26.9668 98.1738 27.1807 98.9297 27.1807C99.5566 27.1807 100.131 27.1162 100.652 26.9873C101.174 26.8584 101.71 26.665 102.261 26.4072V28.4814C101.774 28.7217 101.265 28.8975 100.731 29.0088C100.204 29.1201 99.5625 29.1758 98.8066 29.1758C97.8223 29.1758 96.9492 28.9941 96.1875 28.6309C95.4316 28.2676 94.8369 27.7139 94.4033 26.9697C93.9756 26.2256 93.7617 25.2881 93.7617 24.1572C93.7617 23.0088 93.9551 22.0537 94.3418 21.292C94.7344 20.5244 95.2793 19.9502 95.9766 19.5693C96.6738 19.1826 97.4854 18.9893 98.4111 18.9893ZM98.4287 20.8965C97.9072 20.8965 97.4736 21.0635 97.1279 21.3975C96.7881 21.7314 96.5918 22.2559 96.5391 22.9707H100.301C100.295 22.5723 100.222 22.2178 100.081 21.9072C99.9463 21.5967 99.7412 21.3506 99.4658 21.1689C99.1963 20.9873 98.8506 20.8965 98.4287 20.8965ZM113.65 26.082C113.65 26.75 113.491 27.3154 113.175 27.7783C112.864 28.2354 112.399 28.584 111.778 28.8242C111.156 29.0586 110.383 29.1758 109.457 29.1758C108.772 29.1758 108.183 29.1318 107.691 29.0439C107.204 28.9561 106.712 28.8096 106.214 28.6045V26.3896C106.747 26.6299 107.319 26.8291 107.928 26.9873C108.543 27.1396 109.082 27.2158 109.545 27.2158C110.067 27.2158 110.439 27.1396 110.661 26.9873C110.89 26.8291 111.004 26.624 111.004 26.3721C111.004 26.208 110.957 26.0615 110.863 25.9326C110.776 25.7979 110.582 25.6484 110.283 25.4844C109.985 25.3145 109.516 25.0947 108.877 24.8252C108.262 24.5674 107.755 24.3066 107.357 24.043C106.964 23.7793 106.671 23.4688 106.478 23.1113C106.29 22.748 106.196 22.2881 106.196 21.7314C106.196 20.8232 106.548 20.1406 107.251 19.6836C107.96 19.2207 108.906 18.9893 110.09 18.9893C110.699 18.9893 111.279 19.0508 111.83 19.1738C112.387 19.2969 112.958 19.4932 113.544 19.7627L112.736 21.6963C112.249 21.4854 111.789 21.3125 111.356 21.1777C110.928 21.043 110.491 20.9756 110.046 20.9756C109.654 20.9756 109.358 21.0283 109.158 21.1338C108.959 21.2393 108.86 21.4004 108.86 21.6172C108.86 21.7754 108.909 21.916 109.009 22.0391C109.114 22.1621 109.314 22.2998 109.607 22.4521C109.905 22.5986 110.342 22.7891 110.916 23.0234C111.473 23.252 111.956 23.4922 112.366 23.7441C112.777 23.9902 113.093 24.2979 113.316 24.667C113.538 25.0303 113.65 25.502 113.65 26.082ZM124.397 26.082C124.397 26.75 124.239 27.3154 123.922 27.7783C123.612 28.2354 123.146 28.584 122.525 28.8242C121.904 29.0586 121.13 29.1758 120.204 29.1758C119.519 29.1758 118.93 29.1318 118.438 29.0439C117.952 28.9561 117.459 28.8096 116.961 28.6045V26.3896C117.495 26.6299 118.066 26.8291 118.675 26.9873C119.29 27.1396 119.829 27.2158 120.292 27.2158C120.814 27.2158 121.186 27.1396 121.409 26.9873C121.637 26.8291 121.751 26.624 121.751 26.3721C121.751 26.208 121.704 26.0615 121.611 25.9326C121.523 25.7979 121.329 25.6484 121.031 25.4844C120.732 25.3145 120.263 25.0947 119.624 24.8252C119.009 24.5674 118.502 24.3066 118.104 24.043C117.711 23.7793 117.418 23.4688 117.225 23.1113C117.037 22.748 116.944 22.2881 116.944 21.7314C116.944 20.8232 117.295 20.1406 117.998 19.6836C118.707 19.2207 119.654 18.9893 120.837 18.9893C121.447 18.9893 122.027 19.0508 122.578 19.1738C123.134 19.2969 123.705 19.4932 124.291 19.7627L123.483 21.6963C122.996 21.4854 122.537 21.3125 122.103 21.1777C121.675 21.043 121.239 20.9756 120.793 20.9756C120.401 20.9756 120.105 21.0283 119.906 21.1338C119.706 21.2393 119.607 21.4004 119.607 21.6172C119.607 21.7754 119.657 21.916 119.756 22.0391C119.862 22.1621 120.061 22.2998 120.354 22.4521C120.653 22.5986 121.089 22.7891 121.663 23.0234C122.22 23.252 122.704 23.4922 123.114 23.7441C123.524 23.9902 123.84 24.2979 124.063 24.667C124.286 25.0303 124.397 25.502 124.397 26.082ZM132.314 18.9717C133.632 18.9717 134.643 19.2588 135.346 19.833C136.049 20.4072 136.401 21.2803 136.401 22.4521V29H134.529L134.01 27.6641H133.94C133.659 28.0156 133.372 28.3027 133.079 28.5254C132.786 28.748 132.449 28.9121 132.068 29.0176C131.687 29.123 131.224 29.1758 130.679 29.1758C130.099 29.1758 129.578 29.0645 129.115 28.8418C128.658 28.6191 128.297 28.2793 128.034 27.8223C127.77 27.3594 127.638 26.7734 127.638 26.0645C127.638 25.0215 128.004 24.2539 128.737 23.7617C129.469 23.2637 130.568 22.9883 132.033 22.9355L133.738 22.8828V22.4521C133.738 21.9365 133.603 21.5586 133.334 21.3184C133.064 21.0781 132.689 20.958 132.209 20.958C131.734 20.958 131.268 21.0254 130.811 21.1602C130.354 21.2949 129.897 21.4648 129.44 21.6699L128.552 19.8594C129.074 19.584 129.657 19.3672 130.301 19.209C130.952 19.0508 131.623 18.9717 132.314 18.9717ZM133.738 24.4473L132.701 24.4824C131.834 24.5059 131.23 24.6611 130.89 24.9482C130.556 25.2354 130.389 25.6133 130.389 26.082C130.389 26.4922 130.509 26.7852 130.75 26.9609C130.99 27.1309 131.303 27.2158 131.69 27.2158C132.264 27.2158 132.748 27.0459 133.14 26.7061C133.539 26.3662 133.738 25.8828 133.738 25.2559V24.4473ZM143.844 33.3242C142.472 33.3242 141.424 33.084 140.697 32.6035C139.976 32.1289 139.616 31.4609 139.616 30.5996C139.616 30.0078 139.801 29.5127 140.17 29.1143C140.539 28.7158 141.081 28.4316 141.796 28.2617C141.52 28.1445 141.28 27.9541 141.075 27.6904C140.87 27.4209 140.767 27.1367 140.767 26.8379C140.767 26.4629 140.876 26.1523 141.093 25.9062C141.309 25.6543 141.623 25.4082 142.033 25.168C141.517 24.9453 141.107 24.5879 140.803 24.0957C140.504 23.6035 140.354 23.0234 140.354 22.3555C140.354 21.6406 140.51 21.0342 140.82 20.5361C141.137 20.0322 141.594 19.6484 142.191 19.3848C142.795 19.1211 143.527 18.9893 144.388 18.9893C144.57 18.9893 144.781 19.001 145.021 19.0244C145.262 19.0479 145.481 19.0742 145.68 19.1035C145.886 19.1328 146.023 19.1562 146.094 19.1738H149.521V20.5361L147.983 20.9316C148.124 21.1484 148.229 21.3799 148.3 21.626C148.37 21.8721 148.405 22.1328 148.405 22.4082C148.405 23.4629 148.036 24.2861 147.298 24.8779C146.565 25.4639 145.546 25.7568 144.239 25.7568C143.929 25.7393 143.636 25.7158 143.36 25.6865C143.225 25.792 143.123 25.9033 143.053 26.0205C142.982 26.1377 142.947 26.2607 142.947 26.3896C142.947 26.5186 143 26.627 143.105 26.7148C143.217 26.7969 143.381 26.8613 143.597 26.9082C143.82 26.9492 144.096 26.9697 144.424 26.9697H146.094C147.172 26.9697 147.992 27.2012 148.554 27.6641C149.123 28.127 149.407 28.8066 149.407 29.7031C149.407 30.8516 148.927 31.7422 147.966 32.375C147.011 33.0078 145.637 33.3242 143.844 33.3242ZM143.958 31.5752C144.596 31.5752 145.144 31.5137 145.601 31.3906C146.064 31.2734 146.419 31.1035 146.665 30.8809C146.911 30.6641 147.034 30.4033 147.034 30.0986C147.034 29.8525 146.961 29.6562 146.814 29.5098C146.674 29.3691 146.457 29.2695 146.164 29.2109C145.877 29.1523 145.508 29.123 145.056 29.123H143.668C143.34 29.123 143.044 29.1758 142.78 29.2812C142.522 29.3867 142.317 29.5332 142.165 29.7207C142.012 29.9141 141.936 30.1367 141.936 30.3887C141.936 30.7578 142.112 31.0479 142.464 31.2588C142.821 31.4697 143.319 31.5752 143.958 31.5752ZM144.388 24.1221C144.892 24.1221 145.262 23.9668 145.496 23.6562C145.73 23.3457 145.847 22.9238 145.847 22.3906C145.847 21.7988 145.724 21.3564 145.478 21.0635C145.238 20.7646 144.875 20.6152 144.388 20.6152C143.896 20.6152 143.527 20.7646 143.281 21.0635C143.035 21.3564 142.912 21.7988 142.912 22.3906C142.912 22.9238 143.032 23.3457 143.272 23.6562C143.518 23.9668 143.89 24.1221 144.388 24.1221ZM156.999 18.9893C157.907 18.9893 158.689 19.165 159.346 19.5166C160.002 19.8623 160.509 20.3662 160.866 21.0283C161.224 21.6904 161.402 22.499 161.402 23.4541V24.7549H155.065C155.095 25.5107 155.32 26.1055 155.742 26.5391C156.17 26.9668 156.762 27.1807 157.518 27.1807C158.145 27.1807 158.719 27.1162 159.24 26.9873C159.762 26.8584 160.298 26.665 160.849 26.4072V28.4814C160.362 28.7217 159.853 28.8975 159.319 29.0088C158.792 29.1201 158.15 29.1758 157.395 29.1758C156.41 29.1758 155.537 28.9941 154.775 28.6309C154.02 28.2676 153.425 27.7139 152.991 26.9697C152.563 26.2256 152.35 25.2881 152.35 24.1572C152.35 23.0088 152.543 22.0537 152.93 21.292C153.322 20.5244 153.867 19.9502 154.564 19.5693C155.262 19.1826 156.073 18.9893 156.999 18.9893ZM157.017 20.8965C156.495 20.8965 156.062 21.0635 155.716 21.3975C155.376 21.7314 155.18 22.2559 155.127 22.9707H158.889C158.883 22.5723 158.81 22.2178 158.669 21.9072C158.534 21.5967 158.329 21.3506 158.054 21.1689C157.784 20.9873 157.438 20.8965 157.017 20.8965Z" fill="white"/>
</svg>
